<svg width="278" height="108" viewBox="0 0 278 108" fill="none" xmlns="http://www.w3.org/2000/svg">
<path fill-rule="evenodd" clip-rule="evenodd" d="M86.5934 36.4399C80.0468 23.2797 75.7367 14.6156 69.612 0C63.5365 7.71634 63.5778 13.4644 70.112 22.5C70.112 22.5 64.612 18 62.612 18C60.6121 18 62.112 31.5 68.612 36.5L61.112 34.5C60.2867 41.4798 63.8958 45.2054 76.1121 51.5C79.2741 47.8078 81.5489 46.0429 84.6848 43.6099C85.8461 42.7089 87.1256 41.7162 88.6121 40.5C87.9145 39.0956 87.243 37.7456 86.5934 36.4399ZM115.112 13.5C115.4 9.03378 114.385 6.28706 110.612 1C110.612 1 93.6121 38.5 93.1122 39C92.9992 39.113 92.4439 39.5272 91.5962 40.1597C88.6924 42.3259 82.3571 47.0522 78.6122 51C76.2601 53.2784 75.6722 54.6872 76.1122 57.5C73.9288 58.5543 73.5219 59.8514 74.1122 63.5C74.1122 63.5 89.1123 56 90.1122 56.5C91.1121 57 83.6121 72.5 83.6121 72.5C83.6121 72.5 77.1121 83 87.1121 81.5C97.1121 80 81.6122 107.5 81.6122 107.5C81.6122 107.5 100.112 80 96.1122 79C92.1123 78 100.612 51 100.612 51C107.691 49.9905 110.836 48.4992 115.112 44C117.465 41.3784 118.116 39.8363 118.112 37H112.612L112.743 36.8939C115.569 34.6064 117.62 32.9469 118.112 29.5C118.112 29.5 119.612 19 118.112 19C116.612 19 110.612 23.5 110.612 23.5C113.18 20.0987 114.224 17.859 115.112 13.5Z" fill="black"/>
<path d="M9.74609 28.6562V77H0.615234V28.6562H9.74609ZM29.2363 49.541V56.7461H7.35547V49.541H29.2363ZM31.793 28.6562V35.8613H7.35547V28.6562H31.793ZM64.6016 69.8281V77H40.297V69.8281H64.6016ZM43.0528 28.6562V77H33.922V28.6562H43.0528ZM155.764 51.998V70.8242C155.056 71.7318 153.938 72.7168 152.411 73.7793C150.905 74.8418 148.935 75.7604 146.5 76.5352C144.066 77.2878 141.077 77.6641 137.536 77.6641C134.459 77.6641 131.648 77.1549 129.102 76.1367C126.556 75.0964 124.365 73.5801 122.528 71.5879C120.691 69.5957 119.274 67.1608 118.278 64.2832C117.282 61.4056 116.784 58.1185 116.784 54.4219V51.2344C116.784 47.5378 117.249 44.2507 118.178 41.373C119.13 38.4954 120.48 36.0605 122.229 34.0684C124 32.0762 126.114 30.5599 128.571 29.5195C131.05 28.4792 133.817 27.959 136.872 27.959C140.967 27.959 144.331 28.6341 146.965 29.9844C149.622 31.3346 151.658 33.194 153.075 35.5625C154.491 37.9089 155.377 40.6094 155.731 43.6641H146.833C146.589 41.9818 146.102 40.5098 145.372 39.248C144.641 37.9642 143.601 36.9681 142.25 36.2598C140.922 35.5293 139.196 35.1641 137.071 35.1641C135.278 35.1641 133.695 35.5182 132.323 36.2266C130.95 36.9349 129.799 37.9642 128.87 39.3145C127.94 40.6647 127.232 42.3359 126.745 44.3281C126.28 46.3203 126.047 48.6003 126.047 51.168V54.4219C126.047 57.0117 126.313 59.3138 126.844 61.3281C127.375 63.3203 128.139 65.0026 129.135 66.375C130.153 67.7253 131.404 68.7546 132.887 69.4629C134.392 70.1491 136.097 70.4922 138 70.4922C139.727 70.4922 141.155 70.3483 142.284 70.0605C143.435 69.7507 144.353 69.3854 145.04 68.9648C145.726 68.5443 146.257 68.1348 146.633 67.7363V58.6719H137.038V51.998H155.764ZM192.391 48.6113V55.7832H166.958V48.6113H192.391ZM169.448 28.6562V77H160.317V28.6562H169.448ZM199.165 28.6562V77H190.034V28.6562H199.165ZM224.137 28.6562V77H215.04V28.6562H224.137ZM239.145 28.6562V35.8613H200.198V28.6562H239.145ZM262.425 28.6562V77H253.327V28.6562H262.425ZM277.432 28.6562V35.8613H238.485V28.6562H277.432Z" fill="black"/>
</svg>
