<svg width="698" height="1080" viewBox="0 0 698 1080" fill="none" xmlns="http://www.w3.org/2000/svg">
<path fill-rule="evenodd" clip-rule="evenodd" d="M446.21 585.655C307.548 385.801 216.257 254.225 81.0261 29.5288C-0.0177702 170.41 14.3988 264.439 142.998 396.781C142.998 396.781 42.1758 336.239 9.42525 341.02C-23.3253 345.801 33.508 563.284 151.901 629.624L24.3038 614.801C27.474 731.071 95.4803 783.453 310.573 857.327C353.527 789.307 386.559 754.969 432.094 707.631C448.959 690.1 467.538 670.786 488.972 647.317C474.192 625.986 459.968 605.485 446.21 585.655ZM858.382 141.834C852.426 68.0081 829.227 25.4572 754.813 -52.1029C754.813 -52.1029 566.068 602.614 559.077 611.997C557.498 614.117 549.395 622.228 537.025 634.611C494.652 677.026 402.206 769.565 350.318 843.163C317.249 886.095 310.989 910.571 324.917 955.58C291.684 978.064 288.121 1000.28 306.509 1058.61C306.509 1058.61 534.214 899.941 551.783 905.739C569.352 911.536 483.588 1183.28 483.588 1183.28C483.588 1183.28 402.247 1370.76 562.416 1322.3C722.585 1273.83 534.503 1761.21 534.503 1761.21C534.503 1761.21 771.711 1266.66 703.82 1259.84C635.93 1253.03 710.578 790.574 710.578 790.574C824.082 757.122 872.026 725.183 931.29 641.285C963.552 592.731 970.52 565.923 963.683 519.486L873.618 532.633C874.252 531.947 874.882 531.263 875.51 530.583C916.323 486.368 945.931 454.292 945.755 396.67C945.755 396.67 945.219 221.142 920.656 224.727C896.093 228.313 808.597 316.345 808.597 316.345C842.508 254.51 854.252 215.338 858.382 141.834Z" fill="#343434"/>
</svg>
