<svg width="33" height="62" viewBox="0 0 33 62" fill="none" xmlns="http://www.w3.org/2000/svg">
<path fill-rule="evenodd" clip-rule="evenodd" d="M14.6175 20.8124C10.8784 13.296 8.41677 8.34758 4.91871 0C1.44873 4.40714 1.47231 7.69012 5.20428 12.8507C5.20428 12.8507 2.06298 10.2806 0.920705 10.2806C-0.221569 10.2806 0.635133 17.991 4.34757 20.8467L0.0639895 19.7044C-0.407369 23.6909 1.65394 25.8188 8.63115 29.4139C10.4371 27.3051 11.7363 26.2971 13.5274 24.9075C14.1907 24.3929 14.9215 23.8259 15.7704 23.1313C15.3721 22.3292 14.9885 21.5581 14.6175 20.8124ZM30.9058 7.71044C31.0704 5.15958 30.4903 3.59081 28.3357 0.571143C28.3357 0.571143 18.6262 21.989 18.3407 22.2746C18.2761 22.3391 17.959 22.5757 17.4749 22.9369C15.8164 24.1742 12.198 26.8736 10.0591 29.1283C8.71575 30.4296 8.37995 31.2343 8.63123 32.8407C7.3842 33.4429 7.1518 34.1837 7.48894 36.2676C7.48894 36.2676 16.0561 31.984 16.6272 32.2696C17.1983 32.5552 12.9147 41.4079 12.9147 41.4079C12.9147 41.4079 9.20232 47.4049 14.9137 46.5482C20.6252 45.6915 11.7725 61.3979 11.7725 61.3979C11.7725 61.3979 22.3386 45.6915 20.0541 45.1203C17.7696 44.5492 22.6242 29.1283 22.6242 29.1283C26.6672 28.5517 28.4637 27.7 30.9058 25.1303C32.2496 23.633 32.6212 22.7523 32.6193 21.1323H29.478L29.5528 21.0717C31.167 19.7652 32.338 18.8174 32.6193 16.8487C32.6193 16.8487 33.476 10.8517 32.6193 10.8517C31.7625 10.8517 28.3357 13.4219 28.3357 13.4219C29.802 11.4792 30.3983 10.2 30.9058 7.71044Z" fill="#343434"/>
</svg>
